<svg xmlns="http://www.w3.org/2000/svg" viewBox="0 0 32 32">
  <defs>
    <style>
      .cls-1 {
        fill: none;
      }

      .cls-2 {
        fill: #8f8f8f;
      }
    </style>
  </defs>
  <g id="箭头45度" transform="translate(-447 -66)">
    <rect id="矩形_21" data-name="矩形 21" class="cls-1" width="32" height="32" transform="translate(447 66)"/>
    <path id="路径_51" data-name="路径 51" class="cls-2" d="M247.5,1.8h-5.2a.945.945,0,0,0-1,1,.945.945,0,0,0,1,1h2.8l-6.1,6a.967.967,0,0,0,0,1.4.967.967,0,0,0,1.4,0l6.1-6.1V7.9a1,1,0,0,0,2,0V2.8A.945.945,0,0,0,247.5,1.8Z" transform="translate(219.3 75.2)"/>
  </g>
</svg>
