<svg xmlns="http://www.w3.org/2000/svg" viewBox="0 0 32 32">
  <defs>
    <style>
      .cls-1 {
        fill: none;
      }

      .cls-2 {
        fill: #8f8f8f;
      }
    </style>
  </defs>
  <g id="拍照" transform="translate(-25 -105)">
    <rect id="矩形_2" data-name="矩形 2" class="cls-1" width="32" height="32" transform="translate(25 105)"/>
    <path id="联合_1" data-name="联合 1" class="cls-2" d="M-20-691a4,4,0,0,1-4-4v-10a4.005,4.005,0,0,1,4-4h2.5a1.253,1.253,0,0,0,.8-.4l1.1-1.7A1.916,1.916,0,0,1-14-712h5.9a1.958,1.958,0,0,1,1.7.9l1.1,1.7a1.223,1.223,0,0,0,.8.4H-2a4,4,0,0,1,4,4v10a4,4,0,0,1-4,4Zm3-9a6.007,6.007,0,0,0,6,6,6.007,6.007,0,0,0,6-6,6.006,6.006,0,0,0-6-6A6.007,6.007,0,0,0-17-700Zm13.5-5a1,1,0,0,0,1,1,1,1,0,0,0,1-1,1,1,0,0,0-1-1A1,1,0,0,0-3.5-705Zm-12,5a4.5,4.5,0,0,1,4.5-4.5A4.5,4.5,0,0,1-6.5-700a4.5,4.5,0,0,1-4.5,4.5A4.5,4.5,0,0,1-15.5-700Z" transform="translate(51.999 822)"/>
  </g>
</svg>
