<svg xmlns="http://www.w3.org/2000/svg" viewBox="0 0 32 32">
  <defs>
    <style>
      .cls-1, .cls-4 {
        fill: none;
      }

      .cls-1 {
        stroke: #d8d8d8;
        stroke-width: 0.5px;
      }

      .cls-2 {
        fill: #fff;
      }

      .cls-3, .cls-5 {
        stroke: none;
      }

      .cls-5 {
        fill: #d8d8d8;
      }
    </style>
  </defs>
  <g id="线条粗细" transform="translate(-247 -20)">
    <g id="画笔" transform="translate(120)">
      <g id="矩形_6" data-name="矩形 6" class="cls-1" transform="translate(127 20)">
        <rect class="cls-3" width="32" height="32" rx="2"/>
        <rect class="cls-4" x="0.25" y="0.25" width="31.5" height="31.5" rx="1.75"/>
      </g>
      <g id="路径_35" data-name="路径 35" class="cls-2" transform="translate(62.1 10.8)">
        <path class="cls-3" d="M 86.33999633789063 32.94999694824219 L 75.46000671386719 32.94999694824219 C 74.18626403808594 32.94999694824219 73.14999389648438 31.91373825073242 73.14999389648438 30.63999938964844 L 73.14999389648438 19.7599983215332 C 73.14999389648438 18.48625946044922 74.18626403808594 17.44999885559082 75.46000671386719 17.44999885559082 L 86.33999633789063 17.44999885559082 C 87.61373138427734 17.44999885559082 88.64999389648438 18.48625946044922 88.64999389648438 19.7599983215332 L 88.64999389648438 30.63999938964844 C 88.64999389648438 31.91373825073242 87.61373138427734 32.94999694824219 86.33999633789063 32.94999694824219 Z"/>
        <path class="cls-5" d="M 86.33999633789063 32.69999694824219 C 87.47588348388672 32.69999694824219 88.39999389648438 31.77588844299316 88.39999389648438 30.63999938964844 L 88.39999389648438 19.7599983215332 C 88.39999389648438 18.62410926818848 87.47588348388672 17.69999885559082 86.33999633789063 17.69999885559082 L 75.46000671386719 17.69999885559082 C 74.32411193847656 17.69999885559082 73.39999389648438 18.62410926818848 73.39999389648438 19.7599983215332 L 73.39999389648438 30.63999938964844 C 73.39999389648438 31.77588844299316 74.32411193847656 32.69999694824219 75.46000671386719 32.69999694824219 L 86.33999633789063 32.69999694824219 M 86.33999633789063 33.19999694824219 L 75.46000671386719 33.19999694824219 C 74.052001953125 33.19999694824219 72.89999389648438 32.04800796508789 72.89999389648438 30.63999938964844 L 72.89999389648438 19.7599983215332 C 72.89999389648438 18.35199928283691 74.052001953125 17.19999885559082 75.46000671386719 17.19999885559082 L 86.33999633789063 17.19999885559082 C 87.74799346923828 17.19999885559082 88.89999389648438 18.35199928283691 88.89999389648438 19.7599983215332 L 88.89999389648438 30.63999938964844 C 88.89999389648438 32.04800033569336 87.74799346923828 33.19999694824219 86.33999633789063 33.19999694824219 Z"/>
      </g>
    </g>
  </g>
</svg>
