<svg xmlns="http://www.w3.org/2000/svg" viewBox="0 0 32 32">
  <defs>
    <style>
      .cls-1 {
        fill: #f1f1f1;
      }

      .cls-2 {
        fill: #7f7f7f;
      }
    </style>
  </defs>
  <g id="线条粗细" transform="translate(-247 -20)">
    <g id="画笔" transform="translate(120)">
      <rect id="矩形_6" data-name="矩形 6" class="cls-1" width="32" height="32" rx="2" transform="translate(127 20)"/>
      <path id="路径_33" data-name="路径 33" d="M13.44,16H2.56A2.568,2.568,0,0,1,0,13.44V2.56A2.568,2.568,0,0,1,2.56,0H13.44A2.568,2.568,0,0,1,16,2.56V13.44A2.568,2.568,0,0,1,13.44,16Z" transform="translate(135 28)"/>
    </g>
    <path id="路径_32" data-name="路径 32" class="cls-2" d="M3.9.8,2.3,2.3a.483.483,0,0,1-.7,0L.1.8C-.2.5.1,0,.5,0H3.6A.489.489,0,0,1,3.9.8Z" transform="translate(261.022 47)"/>
  </g>
</svg>
