<svg xmlns="http://www.w3.org/2000/svg" viewBox="0 0 32 32">
  <defs>
    <style>
      .cls-1 {
        fill: #333;
      }

      .cls-2 {
        fill: #fff;
      }
    </style>
  </defs>
  <g id="统计" transform="translate(-25 -105)">
    <rect id="矩形_2" data-name="矩形 2" class="cls-1" width="32" height="32" transform="translate(25 105)"/>
    <g id="组_12" data-name="组 12" transform="translate(29 112)">
      <g id="组_10" data-name="组 10">
        <path id="路径_13" data-name="路径 13" class="cls-2" d="M23,18H1a.945.945,0,0,1-1-1V1A.945.945,0,0,1,1,0,.945.945,0,0,1,2,1V16H23a1,1,0,0,1,0,2Z"/>
      </g>
      <g id="组_11" data-name="组 11">
        <path id="路径_14" data-name="路径 14" class="cls-2" d="M14,12a.908.908,0,0,1-.7-.3L9.5,7.9,5.7,11.7a.99.99,0,0,1-1.4-1.4L8.8,5.8a.967.967,0,0,1,1.4,0L14,9.6l5.3-5.3a.99.99,0,0,1,1.4,1.4l-6,6A.908.908,0,0,1,14,12Z"/>
      </g>
    </g>
  </g>
</svg>
