<svg xmlns="http://www.w3.org/2000/svg" viewBox="0 0 32 32">
  <defs>
    <style>
      .cls-1 {
        fill: #333;
      }

      .cls-2 {
        fill: #fff;
      }
    </style>
  </defs>
  <g id="课程" transform="translate(-25 -113)">
    <rect id="矩形_2" data-name="矩形 2" class="cls-1" width="32" height="32" transform="translate(25 113)"/>
    <g id="组_31" data-name="组 31" transform="translate(29 120)">
      <path id="路径_58" data-name="路径 58" class="cls-2" d="M16.5,18H6.5a1,1,0,0,0,0,2h10a1,1,0,0,0,0-2Z"/>
      <path id="路径_59" data-name="路径 59" class="cls-2" d="M21,0H2A2.006,2.006,0,0,0,0,2V14a2.006,2.006,0,0,0,2,2H21a2.006,2.006,0,0,0,2-2V2A2.006,2.006,0,0,0,21,0ZM13.7,8.8,10.5,11a1.029,1.029,0,0,1-1.6-.8V5.9a1,1,0,0,1,1.6-.8l3.2,2.1A1.041,1.041,0,0,1,13.7,8.8Z"/>
    </g>
  </g>
</svg>
