<svg xmlns="http://www.w3.org/2000/svg" viewBox="0 0 32 32">
  <defs>
    <style>
      .cls-1 {
        fill: #8f8f8f;
      }

      .cls-2 {
        fill: none;
      }
    </style>
  </defs>
  <g id="曲线" transform="translate(-421 -20)">
    <g id="组_20" data-name="组 20" transform="translate(407.82 28.853)">
      <path id="路径_37" data-name="路径 37" class="cls-1" d="M30.3,12.3c-1.4,0-2.5-1.1-3.3-3.2-.5-1.3-.9-1.6-1.1-1.6h0c-.6,0-2,1.8-2.8,3.8a.985.985,0,1,1-1.8-.8c.5-1.2,2.3-5.1,4.6-5.1h0c1.2,0,2.2,1,3,2.9.5,1.2,1,1.9,1.4,1.9,1.4-.1,3.9-4.9,4.5-7.4A.926.926,0,0,1,36,2.2a1.037,1.037,0,0,1,.8,1.2c-.4,1.8-3,8.7-6.3,9A.31.31,0,0,0,30.3,12.3Z"/>
    </g>
    <rect id="矩形_15" data-name="矩形 15" class="cls-2" width="32" height="32" transform="translate(421 20)"/>
  </g>
</svg>
