<svg xmlns="http://www.w3.org/2000/svg" viewBox="0 0 32 32">
  <defs>
    <style>
      .cls-1 {
        fill: none;
      }

      .cls-2 {
        fill: #8f8f8f;
      }
    </style>
  </defs>
  <g id="菱形" transform="translate(-373 -56)">
    <rect id="矩形_19" data-name="矩形 19" class="cls-1" width="32" height="32" transform="translate(373 56)"/>
    <g id="组_28" data-name="组 28" transform="translate(216.5 65.1)">
      <path id="路径_43" data-name="路径 43" class="cls-2" d="M172.2,13.3a.908.908,0,0,1-.7-.3l-5.7-5.7a.967.967,0,0,1,0-1.4L171.5.2a.967.967,0,0,1,1.4,0l5.7,5.7a.967.967,0,0,1,0,1.4L172.9,13A1.08,1.08,0,0,1,172.2,13.3Zm-4.3-6.6,4.2,4.2,4.2-4.2-4.2-4.2Z"/>
    </g>
  </g>
</svg>
