<svg xmlns="http://www.w3.org/2000/svg" viewBox="0 0 32 32">
  <defs>
    <style>
      .cls-1 {
        fill: #8f8f8f;
      }

      .cls-2, .cls-4 {
        fill: none;
      }

      .cls-2 {
        stroke: #d8d8d8;
        stroke-width: 0.5px;
      }

      .cls-3 {
        stroke: none;
      }
    </style>
  </defs>
  <g id="输入字体" transform="translate(-127 -20)">
    <path id="路径_18" data-name="路径 18" class="cls-1" d="M14.5,14.2l-4-11.8A3.389,3.389,0,0,0,7.3,0,3.554,3.554,0,0,0,4,2.3L0,14.1a1.04,1.04,0,0,0,.6,1.3,1.04,1.04,0,0,0,1.3-.6L3.6,9.7h7.2l1.7,5.1a.961.961,0,0,0,.9.7.367.367,0,0,0,.3-.1A.983.983,0,0,0,14.5,14.2ZM4.3,7.7,5.9,3A1.381,1.381,0,0,1,7.2,2,1.3,1.3,0,0,1,8.5,3l1.6,4.8H4.3Z" transform="translate(136.063 28)"/>
    <g id="矩形_6" data-name="矩形 6" class="cls-2" transform="translate(127 20)">
      <rect class="cls-3" width="32" height="32" rx="4"/>
      <rect class="cls-4" x="0.25" y="0.25" width="31.5" height="31.5" rx="3.75"/>
    </g>
  </g>
</svg>
