<svg xmlns="http://www.w3.org/2000/svg" viewBox="0 0 16 16">
  <defs>
    <style>
      .cls-1 {
        fill: #8f8f8f;
      }

      .cls-2 {
        fill: none;
      }
    </style>
  </defs>
  <g id="不可见" transform="translate(-562 -715)">
    <g id="组_63" data-name="组 63" transform="translate(563.474 721.05)">
      <g id="组_59" data-name="组 59">
        <path id="路径_80" data-name="路径 80" class="cls-1" d="M5.9,3.2A7.848,7.848,0,0,1,.1.9,1.1,1.1,0,0,1,.1.1C.2-.1.6-.1.8.1a6.575,6.575,0,0,0,5.1,2A6.413,6.413,0,0,0,11,.1a.483.483,0,0,1,.7,0,.483.483,0,0,1,0,.7A7.036,7.036,0,0,1,5.9,3.2Z"/>
      </g>
      <g id="组_60" data-name="组 60">
        <path id="路径_81" data-name="路径 81" class="cls-1" d="M12.1,2.7h0a6.18,6.18,0,0,1-1.8-.6.5.5,0,1,1,.6-.8,2.678,2.678,0,0,0,1.2.4.441.441,0,0,1,.4.6A.43.43,0,0,1,12.1,2.7Z"/>
      </g>
      <g id="组_61" data-name="组 61">
        <path id="路径_82" data-name="路径 82" class="cls-1" d="M10.2,4.2h-.1A4.4,4.4,0,0,1,8.1,3a.495.495,0,0,1,.7-.7,3.079,3.079,0,0,0,1.5.9.548.548,0,0,1,.4.6A.664.664,0,0,1,10.2,4.2Z"/>
      </g>
      <g id="组_62" data-name="组 62">
        <path id="路径_83" data-name="路径 83" class="cls-1" d="M7.7,5.1H7.5A5.244,5.244,0,0,1,5.2,3.2a.663.663,0,0,1,.2-.7.663.663,0,0,1,.7.2A3.1,3.1,0,0,0,7.8,4.1a.446.446,0,0,1,.3.6A.366.366,0,0,1,7.7,5.1Z"/>
      </g>
    </g>
    <g id="可见" transform="translate(256 -2)">
      <rect id="矩形_36" data-name="矩形 36" class="cls-2" width="16" height="16" transform="translate(306 717)"/>
    </g>
  </g>
</svg>
