<svg xmlns="http://www.w3.org/2000/svg" viewBox="0 0 32 32">
  <defs>
    <style>
      .cls-1 {
        fill: #fff;
      }

      .cls-2 {
        fill: none;
      }
    </style>
  </defs>
  <g id="画笔" transform="translate(-25 -113)">
    <g id="组_6" data-name="组 6" transform="translate(29.013 117.989)">
      <path id="路径_6" data-name="路径 6" class="cls-1" d="M10.9,13.7,9.3,12.1a1.082,1.082,0,0,1,.1-1.7L20.9.3a1.238,1.238,0,0,1,1.7.1h0a1.244,1.244,0,0,1,.1,1.7L12.6,13.6A1.157,1.157,0,0,1,10.9,13.7Z"/>
      <path id="路径_7" data-name="路径 7" class="cls-1" d="M10.2,15.9,7.1,12.8a.483.483,0,0,1,0-.7l.1-.1a.483.483,0,0,1,.7,0L11,15.1a.483.483,0,0,1,0,.7l-.1.1C10.7,16.1,10.3,16.1,10.2,15.9Z"/>
      <path id="路径_8" data-name="路径 8" class="cls-1" d="M6.2,13.5a.913.913,0,0,0-1.1-.2,4.984,4.984,0,0,0-3,4.2A4.32,4.32,0,0,1,.2,20.7a.561.561,0,0,0,.3,1,13.381,13.381,0,0,0,5.3-.6,6.118,6.118,0,0,0,3.9-3.4,1.232,1.232,0,0,0-.2-1Z"/>
    </g>
    <rect id="矩形_2" data-name="矩形 2" class="cls-2" width="32" height="32" transform="translate(25 113)"/>
  </g>
</svg>
