<svg xmlns="http://www.w3.org/2000/svg" viewBox="0 0 32 32">
  <defs>
    <style>
      .cls-1 {
        fill: #333;
      }

      .cls-2 {
        fill: #fff;
      }
    </style>
  </defs>
  <g id="测试题" transform="translate(-25 -109)">
    <rect id="矩形_2" data-name="矩形 2" class="cls-1" width="32" height="32" transform="translate(25 109)"/>
    <path id="路径_9" data-name="路径 9" class="cls-2" d="M18.7,5.5,13.5.3a.779.779,0,0,0-.7-.3H4A4.012,4.012,0,0,0,0,4V19a4.012,4.012,0,0,0,4,4H15a4.012,4.012,0,0,0,4-4V6.2A.908.908,0,0,0,18.7,5.5ZM3.9,7.5H7.1a.5.5,0,1,1,0,1H3.9a.5.5,0,1,1,0-1Zm0,4h7.2a.5.5,0,0,1,0,1H3.9a.5.5,0,1,1,0-1Zm11.2,5H3.9a.5.5,0,1,1,0-1H15.1a.5.5,0,0,1,0,1ZM18,7H14.2A2.22,2.22,0,0,1,12,4.8V1c0-.4.4-.5.7-.3l5.6,5.6A.4.4,0,0,1,18,7Z" transform="translate(32 113)"/>
  </g>
</svg>
