<svg xmlns="http://www.w3.org/2000/svg" viewBox="0 0 32 32">
  <defs>
    <style>
      .cls-1 {
        fill: #8f8f8f;
      }

      .cls-2 {
        fill: none;
      }
    </style>
  </defs>
  <g id="圆角矩形" transform="translate(-373 -56)">
    <g id="组_23" data-name="组 23" transform="translate(287.7 65.3)">
      <path id="路径_40" data-name="路径 40" class="cls-1" d="M104.3,12.7h-7a4.012,4.012,0,0,1-4-4v-4a4.012,4.012,0,0,1,4-4h7a4.012,4.012,0,0,1,4,4v4A4.012,4.012,0,0,1,104.3,12.7Zm-7-10a2.006,2.006,0,0,0-2,2v4a2.006,2.006,0,0,0,2,2h7a2.006,2.006,0,0,0,2-2v-4a2.006,2.006,0,0,0-2-2h-7Z"/>
    </g>
    <rect id="矩形_19" data-name="矩形 19" class="cls-2" width="32" height="32" transform="translate(373 56)"/>
  </g>
</svg>
