<svg xmlns="http://www.w3.org/2000/svg" viewBox="0 0 32 32">
  <defs>
    <style>
      .cls-1 {
        fill: #d8d8d8;
      }

      .cls-2 {
        fill: none;
      }
    </style>
  </defs>
  <g id="保存" transform="translate(-976 -16)">
    <g id="组_30" data-name="组 30" transform="translate(983 22)">
      <path id="路径_52" data-name="路径 52" class="cls-1" d="M15,0H3A2.946,2.946,0,0,0,0,3V17a2.946,2.946,0,0,0,3,3H15a2.946,2.946,0,0,0,3-3V3A2.946,2.946,0,0,0,15,0ZM12,2V7H6V2Zm4,15a.945.945,0,0,1-1,1H3a.945.945,0,0,1-1-1V3A.945.945,0,0,1,3,2H4V8A.945.945,0,0,0,5,9h8a.945.945,0,0,0,1-1V2h1a.945.945,0,0,1,1,1Z"/>
      <path id="路径_53" data-name="路径 53" class="cls-1" d="M10,5.6a.472.472,0,0,0,.5-.5v-1a.472.472,0,0,0-.5-.5.536.536,0,0,0-.5.5v1A.472.472,0,0,0,10,5.6Z"/>
    </g>
    <path id="路径_54" data-name="路径 54" class="cls-2" d="M4,0H28a4,4,0,0,1,4,4V28a4,4,0,0,1-4,4H4a4,4,0,0,1-4-4V4A4,4,0,0,1,4,0Z" transform="translate(976 16)"/>
  </g>
</svg>
