<svg xmlns="http://www.w3.org/2000/svg" viewBox="0 0 32 32">
  <defs>
    <style>
       .cls-1 {
        fill: #333;
      }

      .cls-2 {
        fill: #fff;
      }
    </style>
  </defs>
  <g id="学生管理" transform="translate(-25 -105)">
    <rect id="矩形_2" data-name="矩形 2" class="cls-1" width="32" height="32" transform="translate(25 105)"/>
    <g id="组_46" data-name="组 46" transform="translate(27.975 110.975)">
      <g id="组_43" data-name="组 43">
        <path id="路径_68" data-name="路径 68" class="cls-2" d="M12.6,10.3.7,6.1a1.006,1.006,0,0,1,0-1.9L12.6.1a2.854,2.854,0,0,1,1.3,0L25.8,4.2a1.006,1.006,0,0,1,0,1.9L13.9,10.2A1.95,1.95,0,0,1,12.6,10.3Z"/>
      </g>
      <g id="组_44" data-name="组 44">
        <path id="路径_69" data-name="路径 69" class="cls-2" d="M25.5,10.2a.945.945,0,0,1-1-1v-4a1,1,0,0,1,2,0v4A1,1,0,0,1,25.5,10.2Z"/>
      </g>
      <g id="组_45" data-name="组 45">
        <path id="路径_70" data-name="路径 70" class="cls-2" d="M12.6,12.3,4.8,9.6a.35.35,0,0,0-.5.3v7.2c0,.2.1.3.3.4l8.1,2.8a2.854,2.854,0,0,0,1.3,0l8.1-2.8c.2-.1.3-.2.3-.4V9.9c0-.3-.3-.5-.5-.4l-7.8,2.7A2.657,2.657,0,0,1,12.6,12.3Z"/>
      </g>
    </g>
  </g>
</svg>
