<svg xmlns="http://www.w3.org/2000/svg" viewBox="0 0 40 40">
  <defs>
    <style>
      .cls-1 {
        fill: #fff;
      }

      .cls-2 {
        fill: #444;
      }
    </style>
  </defs>
  <g id="撤销1" transform="translate(-96 -704)">
    <g id="全屏" transform="translate(-872 636)">
      <path id="路径_57" data-name="路径 57" class="cls-1" d="M20,0A20,20,0,1,1,0,20,20,20,0,0,1,20,0Z" transform="translate(968 68)"/>
    </g>
    <path id="路径_55" data-name="路径 55" class="cls-2" d="M14.9,4H3.4L5.6,1.8A.967.967,0,0,0,5.6.4.967.967,0,0,0,4.2.4L.3,4.4a.967.967,0,0,0,0,1.4L4.2,9.7a1.08,1.08,0,0,0,.7.3,1.08,1.08,0,0,0,.7-.3.967.967,0,0,0,0-1.4L3.4,6H14.9a4,4,0,0,1,0,8h-8a1,1,0,0,0,0,2h8a6,6,0,0,0,0-12Z" transform="translate(106 715.9)"/>
  </g>
</svg>
